<?xml version="1.0" encoding="UTF-8"?>
<svg xmlns="http://www.w3.org/2000/svg" xmlns:xlink="http://www.w3.org/1999/xlink" width="53px" height="25px" viewBox="0 0 53 25" version="1.1">
<g id="surface1">
<path style=" stroke:none;fill-rule:nonzero;fill:rgb(10.980392%,55.294118%,34.117647%);fill-opacity:1;" d="M 3.382812 0.164062 L 12.011719 0.164062 C 15.371094 0.164062 18.585938 1.496094 20.960938 3.871094 C 23.332031 6.246094 24.667969 9.464844 24.664062 12.820312 L 24.664062 21.453125 C 24.664062 21.898438 24.582031 22.339844 24.40625 22.746094 C 24.242188 23.160156 23.992188 23.53125 23.671875 23.84375 C 23.359375 24.15625 22.988281 24.40625 22.578125 24.578125 C 22.167969 24.746094 21.730469 24.835938 21.285156 24.835938 L 12.710938 24.835938 C 11.039062 24.835938 9.390625 24.507812 7.84375 23.867188 C 6.304688 23.230469 4.902344 22.292969 3.722656 21.113281 C 2.542969 19.933594 1.605469 18.535156 0.96875 16.988281 C 0.328125 15.453125 0 13.800781 0.00390625 12.132812 L 0.00390625 3.546875 C 0.00390625 2.644531 0.359375 1.792969 0.992188 1.15625 C 1.625 0.519531 2.484375 0.164062 3.382812 0.164062 Z M 3.382812 0.164062 "/>
<path style=" stroke:none;fill-rule:nonzero;fill:rgb(100%,100%,100%);fill-opacity:1;" d="M 17.964844 6.746094 C 16.609375 5.339844 14.699219 4.628906 12.277344 4.628906 C 9.992188 4.628906 8.132812 5.363281 6.742188 6.808594 C 5.359375 8.25 4.652344 10.265625 4.652344 12.808594 L 4.652344 21.957031 C 5.816406 22.914062 7.140625 23.652344 8.566406 24.140625 L 8.566406 19.609375 L 11.695312 19.609375 C 12.695312 19.609375 13.667969 19.480469 14.59375 19.222656 C 15.515625 18.964844 16.398438 18.5625 17.214844 18.019531 C 18.070312 17.460938 18.75 16.65625 19.25 15.636719 C 19.742188 14.628906 19.992188 13.441406 19.992188 12.105469 C 19.992188 9.957031 19.3125 8.15625 17.964844 6.75 Z M 14.894531 14.796875 L 14.886719 14.796875 C 14.199219 15.523438 13.261719 15.878906 12.027344 15.878906 L 8.566406 15.878906 L 8.566406 12.6875 C 8.566406 11.371094 8.898438 10.296875 9.5625 9.507812 C 10.210938 8.734375 11.089844 8.359375 12.246094 8.359375 C 13.40625 8.359375 14.351562 8.691406 14.976562 9.375 C 15.621094 10.070312 15.933594 10.941406 15.933594 12.042969 C 15.933594 13.148438 15.589844 14.0625 14.894531 14.796875 Z M 14.894531 14.796875 "/>
<path style=" stroke:none;fill-rule:evenodd;fill:rgb(8.235294%,7.45098%,15.294118%);fill-opacity:1;" d="M 52.320312 14.355469 C 51.917969 13.683594 51.34375 13.152344 50.601562 12.777344 C 51.644531 11.972656 52.167969 10.839844 52.167969 9.417969 C 52.167969 7.996094 51.675781 6.824219 50.714844 5.855469 C 49.738281 4.878906 48.304688 4.394531 46.480469 4.394531 C 44.792969 4.394531 43.359375 4.96875 42.199219 6.097656 C 41.042969 7.230469 40.460938 8.707031 40.460938 10.476562 L 40.460938 22.300781 L 47.027344 22.300781 C 48.929688 22.300781 50.429688 21.875 51.441406 21.015625 C 52.484375 20.128906 53 18.8125 53 17.132812 C 53 16.042969 52.78125 15.113281 52.328125 14.351562 Z M 43.824219 10.523438 C 43.824219 9.574219 44.0625 8.871094 44.492188 8.410156 L 44.542969 8.367188 C 45.027344 7.890625 45.632812 7.652344 46.433594 7.652344 C 47.328125 7.652344 47.917969 7.859375 48.242188 8.214844 C 48.597656 8.609375 48.78125 9.085938 48.78125 9.695312 C 48.78125 10.3125 48.5625 10.75 48.105469 11.097656 C 47.605469 11.484375 47.019531 11.671875 46.292969 11.671875 L 43.824219 11.671875 Z M 48.984375 18.53125 C 48.613281 18.859375 47.964844 19.046875 47.003906 19.046875 L 43.832031 19.046875 L 43.832031 14.820312 L 47.125 14.820312 C 47.917969 14.820312 48.523438 15.007812 48.9375 15.363281 C 49.332031 15.695312 49.535156 16.171875 49.535156 16.859375 C 49.535156 17.6875 49.332031 18.230469 48.984375 18.53125 Z M 31.097656 18.707031 C 31.4375 18.3125 31.824219 17.925781 32.238281 17.550781 L 32.421875 17.390625 C 32.925781 16.953125 33.367188 16.589844 33.707031 16.308594 C 34.0625 16.019531 34.675781 15.523438 35.542969 14.828125 C 36.460938 14.078125 37.140625 13.320312 37.554688 12.570312 C 37.980469 11.792969 38.191406 10.824219 38.191406 9.683594 C 38.191406 8.046875 37.660156 6.730469 36.585938 5.800781 C 35.535156 4.886719 34.097656 4.433594 32.328125 4.433594 C 29.894531 4.433594 28.011719 5.632812 26.734375 7.964844 L 26.5 8.390625 L 29.191406 10.652344 L 29.523438 9.960938 C 29.886719 9.199219 30.308594 8.644531 30.785156 8.289062 C 31.25 7.933594 31.820312 7.746094 32.40625 7.753906 C 33.175781 7.753906 33.730469 7.941406 34.09375 8.28125 C 34.464844 8.632812 34.636719 9.046875 34.636719 9.5625 C 34.636719 10.757812 34.113281 11.746094 33.011719 12.601562 C 30.742188 14.335938 29.34375 15.539062 28.765625 16.277344 C 28.214844 16.992188 27.800781 17.625 27.535156 18.175781 C 27.269531 18.730469 27.101562 19.183594 27.019531 19.570312 C 26.945312 19.941406 26.898438 20.3125 26.898438 20.679688 L 26.898438 22.308594 L 38.046875 22.308594 L 38.046875 18.910156 L 30.921875 18.910156 C 30.976562 18.851562 31.027344 18.78125 31.089844 18.714844 Z M 31.097656 18.707031 "/>
</g>
</svg>
